<svg version="1.2" baseProfile="tiny-ps" xmlns="http://www.w3.org/2000/svg" viewBox="0 0 456 355" width="456" height="355">
	<title>Logo-svg</title>
	<style>
		tspan { white-space:pre }
		.shp0 { fill: #0000ff } 
		.shp1 { fill: #ffffff } 
	</style>
	<path class="shp0" d="M-9 -55L490 -55L490 452L-9 452L-9 -55Z" />
	<path class="shp1" d="M279 102C279 102 280.25 102 282.13 102C284.02 102 286.57 102.01 289.18 102.03C291.84 102.06 294.59 102.11 296.72 102.16C298.91 102.22 300.41 102.27 300.41 102.27C300.41 102.27 300.16 104.66 299.85 108.25C299.6 111.84 299.36 116.62 299.2 121.37C299.13 126.06 299.12 130.69 299.14 134.1C299.19 137.46 299.23 139.66 299.23 139.66C299.23 139.66 297.94 139.9 296.01 140.2C294.1 140.44 291.56 140.67 289.03 140.83C286.51 140.93 284 140.98 282.13 140.99C280.25 141 279 141 279 141C279 141 279 138.56 279 134.91C279 131.25 279 126.38 279 121.5C279 116.63 279 111.75 279 108.09C279 104.44 279 102 279 102Z" />
	<path fill="#ffffff" stroke="#ffffff" stroke-width="32" aria-label="C"  d="M294.76 176.08Q295.11 190.09 293.36 207.96Q290.55 238.1 277.59 251.76Q271.28 258.42 249.21 266.13Q240.1 269.28 227.48 269.28Q210.66 269.28 195.6 263.33Q177.37 255.97 173.17 242.3Q171.77 240.55 170.02 237.4Q168.26 226.88 164.41 205.86L164.41 171.17Q164.41 166.27 166.51 151.2Q168.61 135.78 170.02 132.28Q182.28 99.69 197 96.54Q203.65 95.13 211.71 95.13Q237.29 95.13 258.67 107.75Q259.72 108.45 262.17 108.45Q262.52 107.4 262.87 99.69Q263.22 98.64 262.52 87.43Q261.82 72.01 272.68 72.01Q283.55 72.01 284.6 78.32Q284.6 81.82 283.9 104.24L283.2 128.42Q283.55 134.73 283.9 133.68Q282.49 138.93 278.99 139.99Q269.53 143.14 266.03 140.34Q264.27 140.34 262.17 139.28Q260.42 134.38 254.46 126.32Q246.4 119.66 233.79 114.76Q221.17 109.85 211.36 109.85Q199.8 109.85 192.79 127.72Q182.98 153.3 184.03 191.14Q184.73 208.31 185.08 212.87Q188.24 239.85 205.76 248.96Q214.52 253.52 222.93 253.87Q264.62 255.62 271.63 217.07Q275.49 196.05 272.33 182.38Q271.98 180.63 271.98 178.88Q271.98 170.12 285.3 169.07Q287.75 169.07 291.25 171.52Q294.76 173.62 294.76 176.08Z" />
	<path fill="#4eff1d" aria-label="C"  d="M294.76 176.08Q295.11 190.09 293.36 207.96Q290.55 238.1 277.59 251.76Q271.28 258.42 249.21 266.13Q240.1 269.28 227.48 269.28Q210.66 269.28 195.6 263.33Q177.37 255.97 173.17 242.3Q171.77 240.55 170.02 237.4Q168.26 226.88 164.41 205.86L164.41 171.17Q164.41 166.27 166.51 151.2Q168.61 135.78 170.02 132.28Q182.28 99.69 197 96.54Q203.65 95.13 211.71 95.13Q237.29 95.13 258.67 107.75Q259.72 108.45 262.17 108.45Q262.52 107.4 262.87 99.69Q263.22 98.64 262.52 87.43Q261.82 72.01 272.68 72.01Q283.55 72.01 284.6 78.32Q284.6 81.82 283.9 104.24L283.2 128.42Q283.55 134.73 283.9 133.68Q282.49 138.93 278.99 139.99Q269.53 143.14 266.03 140.34Q264.27 140.34 262.17 139.28Q260.42 134.38 254.46 126.32Q246.4 119.66 233.79 114.76Q221.17 109.85 211.36 109.85Q199.8 109.85 192.79 127.72Q182.98 153.3 184.03 191.14Q184.73 208.31 185.08 212.87Q188.24 239.85 205.76 248.96Q214.52 253.52 222.93 253.87Q264.62 255.62 271.63 217.07Q275.49 196.05 272.33 182.38Q271.98 180.63 271.98 178.88Q271.98 170.12 285.3 169.07Q287.75 169.07 291.25 171.52Q294.76 173.62 294.76 176.08Z" />
</svg>