<svg version="1.2" baseProfile="tiny-ps" xmlns="http://www.w3.org/2000/svg" viewBox="0 0 204 204" width="204" height="204">
	<title>New Project</title>
	<style>
		tspan { white-space:pre }
		.shp0 { fill: #0000ff } 
		.shp1 { fill: #ffffff } 
	</style>
	<path class="shp0" d="M-136 -127L363 -127L363 380L-136 380L-136 -127Z" />
	<path fill="#ffffff" stroke="#ffffff" stroke-width="34" aria-label="C"  d="M161.75 106.86Q162.05 118.96 160.54 134.38Q158.12 160.39 146.93 172.18Q141.49 177.92 122.44 184.58Q114.58 187.3 103.69 187.3Q89.17 187.3 76.17 182.16Q60.45 175.81 56.82 164.01Q55.61 162.5 54.1 159.78Q52.58 150.71 49.26 132.56L49.26 102.63Q49.26 98.39 51.07 85.39Q52.89 72.08 54.1 69.06Q64.68 40.94 77.38 38.22Q83.13 37.01 90.08 37.01Q112.16 37.01 130.6 47.89Q131.51 48.5 133.63 48.5Q133.93 47.59 134.23 40.94Q134.53 40.03 133.93 30.35Q133.32 17.05 142.7 17.05Q152.07 17.05 152.98 22.49Q152.98 25.52 152.38 44.87L151.77 65.73Q152.07 71.18 152.38 70.27Q151.17 74.81 148.14 75.71Q139.98 78.44 136.95 76.02Q135.44 76.02 133.63 75.11Q132.12 70.88 126.97 63.92Q120.02 58.17 109.13 53.94Q98.25 49.71 89.78 49.71Q79.8 49.71 73.75 65.13Q65.28 87.2 66.19 119.86Q66.8 134.68 67.1 138.61Q69.82 161.9 84.94 169.76Q92.5 173.69 99.76 173.99Q135.74 175.51 141.79 142.24Q145.12 124.1 142.4 112.3Q142.09 110.79 142.09 109.28Q142.09 101.72 153.59 100.81Q155.7 100.81 158.73 102.93Q161.75 104.74 161.75 106.86Z" />
	<path class="shp1" d="M145 36L169.82 35.74C169.82 35.74 169.67 47.47 169.81 59.22C169.26 70.89 167.07 82.39 167.07 82.39L145 82C145 82 145 70.5 145 59C145 47.5 145 36 145 36Z" />
	<path fill="#00ff0f" aria-label="C"  d="M161.75 106.86Q162.05 118.96 160.54 134.38Q158.12 160.39 146.93 172.18Q141.49 177.92 122.44 184.58Q114.58 187.3 103.69 187.3Q89.17 187.3 76.17 182.16Q60.45 175.81 56.82 164.01Q55.61 162.5 54.1 159.78Q52.58 150.71 49.26 132.56L49.26 102.63Q49.26 98.39 51.07 85.39Q52.89 72.08 54.1 69.06Q64.68 40.94 77.38 38.22Q83.13 37.01 90.08 37.01Q112.16 37.01 130.6 47.89Q131.51 48.5 133.63 48.5Q133.93 47.59 134.23 40.94Q134.53 40.03 133.93 30.35Q133.32 17.05 142.7 17.05Q152.07 17.05 152.98 22.49Q152.98 25.52 152.38 44.87L151.77 65.73Q152.07 71.18 152.38 70.27Q151.17 74.81 148.14 75.71Q139.98 78.44 136.95 76.02Q135.44 76.02 133.63 75.11Q132.12 70.88 126.97 63.92Q120.02 58.17 109.13 53.94Q98.25 49.71 89.78 49.71Q79.8 49.71 73.75 65.13Q65.28 87.2 66.19 119.86Q66.8 134.68 67.1 138.61Q69.82 161.9 84.94 169.76Q92.5 173.69 99.76 173.99Q135.74 175.51 141.79 142.24Q145.12 124.1 142.4 112.3Q142.09 110.79 142.09 109.28Q142.09 101.72 153.59 100.81Q155.7 100.81 158.73 102.93Q161.75 104.74 161.75 106.86Z" />
</svg>