<svg version="1.1" xmlns="http://www.w3.org/2000/svg" xmlns:xlink="http://www.w3.org/1999/xlink" width="251.05292" height="164.72539" viewBox="0,0,251.05292,164.72539"><g transform="translate(-115.00021,-98.00041)"><g data-paper-data="{&quot;isPaintingLayer&quot;:true}" fill-rule="evenodd" stroke="none" stroke-width="1" stroke-linecap="butt" stroke-linejoin="miter" stroke-miterlimit="10" stroke-dasharray="" stroke-dashoffset="0" style="mix-blend-mode: normal"><g><path d="M183.113,202.967c0,0 -23.84,20.084 -34.056,16.938c-16.568,-5.102 -22.684,-14.402 -22.684,-14.402c0,0 -13.166,-21.558 -11.166,-24.558c2,-3 6.5,2.334 11.166,4.082c4.666,1.75 4.928,-5.476 9.726,-6.696c6.162,-1.566 7.29,4.518 12.54,5.768c5.25,1.25 8.956,-12.626 12.318,-0.82c3.424,12.02 22.156,19.688 22.156,19.688" fill="#b02929"/><path d="M198.6736,219.9052c-46.216,25.372 -72.3,-14.404 -72.3,-14.404c33.366,35.278 27.866,-33.568 72.3,-36.71c26.14,-1.846 34.25,28.58 34.25,28.58" fill="#771919"/></g><g><path d="M251.944,141.0666c0.534,2.218 -6.978,5.928 -16.778,8.284c-9.798,2.356 -18.176,2.468 -18.708,0.25c-0.534,-2.218 6.978,-5.928 16.778,-8.284c9.798,-2.356 18.174,-2.468 18.708,-0.25" fill="#440909"/><path d="M251.944,141.0666c0,0 -14.208,-2.056 -25.296,2.556c-1.592,0.648 -3.12,1.46 -4.566,2.484c-1.62,1.126 -3.1,2.486 -4.41,4.146c-0.13,0.086 -0.272,0.112 -0.412,0.1c-0.716,-0.072 -1.35,-1.38 -1.26,-2.296l5.25,-48.016c0.23,-2.128 3.01,-2.798 4.198,-0.992l26.324,40.486z" fill="#b02929"/><path d="M247.819,140.7034c0.172,0.202 -21.116,-2.182 -30.148,9.546c0,0 -0.98,0.654 -1.632,-1.502c-0.064,-0.21 -0.068,-0.458 -0.042,-0.69l5.258,-48.024c0.162,-1.56 1.704,-2.338 2.976,-1.922c0,0 -2.362,23.592 -1.02,35.374c1.236,10.866 5.906,0.976 24.608,7.218" fill="#771919"/><path d="M219.694,114.2004c0.044,0.01 0.068,0.024 0.116,0.054l1.76,1.266l2.022,-0.748c0.664,-0.24 1.306,0.388 1.096,1.054l-0.644,2.046l1.334,1.718c0.416,0.538 0.032,1.348 -0.666,1.35l-2.154,0.02l-1.218,1.79c-0.376,0.584 -1.266,0.466 -1.486,-0.2l-0.696,-2.056l-0.134,-0.048z" fill="#e6ac00"/><path d="M244.9024,128.9462l-1.014,0.652l-0.114,3.152c-0.046,1.02 -1.236,1.548 -2.024,0.914l-2.436,-2.03l-3.042,0.868c-0.982,0.276 -1.85,-0.69 -1.48,-1.642l1.172,-2.93l-1.756,-2.626c-0.572,-0.85 0.08,-1.992 1.104,-1.928l3.156,0.214l1.628,-2.052z" fill="#ffbf00"/><path d="M227.195,141.1448l-0.958,1.552l0.412,0.926c-1.592,0.646 -3.12,1.46 -4.568,2.482c-0.11,-0.09 -0.196,-0.24 -0.198,-0.42l-0.142,-1.824l-1.58,-0.9c-0.512,-0.292 -0.46,-1.03 0.066,-1.26l1.678,-0.718l0.376,-1.77c0.118,-0.572 0.858,-0.76 1.238,-0.32l1.188,1.382l1.79,-0.204c0.588,-0.062 0.988,0.58 0.698,1.074" fill="#e6ac00"/><path d="M227.8542,130.382c0.21,0.884 -0.334,1.77 -1.218,1.982c-0.884,0.21 -1.772,-0.336 -1.982,-1.22c-0.212,-0.884 0.334,-1.77 1.218,-1.98c0.884,-0.212 1.772,0.334 1.982,1.218" fill="#ffbf00"/><path d="M229.8192,105.7846c-0.106,0.068 -0.218,0.114 -0.336,0.142c-0.856,0.204 -1.718,-0.31 -1.922,-1.166c-0.148,-0.622 0.076,-1.232 0.542,-1.61z" fill="#ffbf00"/><path d="M224.7038,120.9416l-1.88,0.02c0.04,-2 0.1,-4.02 0.2,-5.98l0.56,-0.2c0.68,-0.24 1.32,0.38 1.1,1.04l-0.64,2.06l1.34,1.7c0.4,0.54 0.02,1.36 -0.68,1.36" fill="#ffbf00"/></g><g><path d="M333.2858,177.8108c6.712,-14.614 17.176,-34 18.43,-33.424c1.256,0.576 -7.174,20.898 -13.888,35.512c-6.712,14.614 -9.168,17.988 -10.422,17.412c-1.254,-0.578 -0.832,-4.884 5.88,-19.5" fill="#8805cf"/><path d="M353.782,131.512c1.766,-1.486 4.466,-0.302 4.574,2.002l0.326,7.13l6.058,3.774c1.96,1.218 1.668,4.154 -0.49,4.968l-6.68,2.512l-1.718,6.93c-0.554,2.238 -3.436,2.87 -4.874,1.068l-4.456,-5.578l-7.12,0.51c-2.302,0.164 -3.792,-2.382 -2.522,-4.308l3.926,-5.96l-2.684,-6.614c-0.868,-2.138 1.094,-4.342 3.318,-3.73l6.882,1.892l5.46,-4.596" fill="#ab2fee"/></g><g><path d="M176.2078,251.2776c-18.168,0 -7.17,-75.622 39.166,-74.5c47.198,1.144 64.334,74.5 64.334,74.5z" fill="#efab00"/><path d="M313.9324,220.924c0,0 -94.3,25.11 -111.226,27.604c-22.666,3.34 -30.178,-3.948 -32.914,-15.75c-4.526,-19.522 11.248,-20.166 16.082,-30.832c4.832,-10.668 -6.536,-28.022 16.082,-28.918c18.918,-0.75 19.206,-15.286 28.506,-16.354c14.424,-1.656 17.574,12.038 28.246,15.854c10.08,3.604 15.384,-5.618 26.666,-1.084c9.666,3.886 10.102,24.54 22.834,28.834c20.75,7 5.724,20.646 5.724,20.646" fill="#59c059"/><path d="M191.403,214.9416c-2.058,-0.624 -3.234,-2.822 -2.608,-4.88l1.254,-4.136c0.624,-2.058 2.82,-3.232 4.88,-2.608l11.012,3.338c2.06,0.626 3.234,2.822 2.608,4.882l-1.254,4.134c-0.624,2.06 -2.82,3.232 -4.88,2.608l-11.012,-3.338" fill="#e8511c"/><path d="M184.0242,212.0216c2.28,0.58 5.54,3.06 8.2,3.72c-6.88,17.82 -8.12,34.9 -16.64,35.5h-0.04c-6.54,-0.54 -13.6,-6.66 -9.52,-12.96c2.42,-3.74 -1.34,-8.38 -0.32,-12.68c1.46,-6.2 7.8,-7.54 10,-8.16c2.4,-0.66 4.94,-6.28 8.32,-5.42" fill="#c18500"/><path d="M201.1638,205.2208c-2.02,3.66 -3.68,7.42 -5.08,11.14l-1.88,-0.58l-1.8,-0.538c1.46,-3.722 3.18,-7.462 5.26,-11.08z" fill="#c6431a"/><path d="M196.0838,216.3616c-6.62,17.44 -7.96,34 -16.18,34.86c-0.96,0 -1.44,0 -3.04,0.06h-0.4c-0.3,0 -0.58,-0.02 -0.88,-0.04c8.52,-0.6 9.76,-17.68 16.64,-35.5c0.72,0.18 1.38,0.22 1.98,0.04z" fill="#a06b00"/><path d="M199.7048,192.0608c-1.94,0.93 -4.29,0.102 -5.218,-1.84l-0.36,-0.748c-0.928,-1.942 -0.1,-4.288 1.84,-5.218l5.37,-2.57c1.942,-0.93 4.29,-0.102 5.218,1.838l0.36,0.75c0.928,1.94 0.1,4.29 -1.84,5.218l-5.37,2.57" fill="#e8511c"/><path d="M254.2038,175.5618c-1.46,0.02 -2.96,0.1 -4.5,0.22c-26.84,2.06 -40.54,14.92 -48.54,29.44l-3.5,-1.06c8.08,-14.1 21.76,-26.36 47.94,-28.38c3,-0.24 5.86,-0.3 8.6,-0.22" fill="#4ba04b"/><path d="M300.526,205.754c-1.076,-1.864 -0.432,-4.27 1.434,-5.346l1.904,-1.1c1.864,-1.076 4.27,-0.43 5.346,1.432l4.066,7.044c1.076,1.864 0.432,4.268 -1.434,5.346l-1.904,1.098c-1.864,1.076 -4.27,0.432 -5.346,-1.432l-4.066,-7.042" fill="#e8511c"/><path d="M254.3992,178.7638c-2.03,0.716 -4.276,-0.356 -4.992,-2.386l-0.732,-2.074c-0.718,-2.03 0.354,-4.276 2.384,-4.994l7.668,-2.71c2.03,-0.716 4.276,0.358 4.992,2.386l0.734,2.074c0.718,2.03 -0.356,4.278 -2.386,4.994l-7.668,2.71" fill="#e8511c"/><path d="M179.2074,251.2776c18,0 4.446,-70.43 70.5,-75.5c52.584,-4.036 65.6,40.576 68.334,64.004c0.714,6.114 -4,11.496 -10.152,11.496z" fill="#ffbf00"/><path d="M227.1804,173.7648c-0.58,0 -1.156,-0.252 -1.552,-0.738c-0.698,-0.856 -0.568,-2.116 0.288,-2.812l10.5,-8.552c0.858,-0.694 2.118,-0.568 2.814,0.288c0.698,0.856 0.568,2.116 -0.288,2.814l-10.5,8.55c-0.372,0.302 -0.818,0.45 -1.262,0.45" fill="#ffbf00"/><path d="M295.362,180.0246c-0.124,0 -0.248,-0.01 -0.374,-0.036l-13.306,-2.518c-1.086,-0.204 -1.798,-1.252 -1.594,-2.336c0.206,-1.086 1.254,-1.81 2.336,-1.594l13.308,2.52c1.086,0.204 1.798,1.252 1.592,2.336c-0.18,0.96 -1.02,1.628 -1.962,1.628" fill="#ffbf00"/><path d="M181.699,221.0822c-0.444,0 -0.892,-0.146 -1.264,-0.452l-10.494,-8.56c-0.856,-0.696 -0.984,-1.956 -0.284,-2.812c0.698,-0.854 1.956,-0.986 2.814,-0.286l10.494,8.562c0.856,0.696 0.984,1.956 0.284,2.812c-0.394,0.484 -0.97,0.736 -1.55,0.736" fill="#ffbf00"/><path d="M294.5378,215.3694c-3.262,0 -3.268,-5.07 0,-5.07c3.264,0 3.268,5.07 0,5.07" fill="#efab00"/><path d="M268.573,219.9044c-3.262,0 -3.268,-5.07 0,-5.07c3.264,0 3.268,5.07 0,5.07" fill="#efab00"/><path d="M265.4342,240.7794c-3.262,0 -3.268,-5.07 0,-5.07c3.264,0 3.27,5.07 0,5.07" fill="#efab00"/><path d="M222.491,243.3146c-3.262,0 -3.268,-5.07 0,-5.07c3.262,0 3.268,5.07 0,5.07" fill="#efab00"/><path d="M227.5154,199.2326c-3.262,0 -3.268,-5.07 0,-5.07c3.262,0 3.268,5.07 0,5.07" fill="#efab00"/><path d="M254.3932,187.7444c-3.262,0 -3.268,-5.072 0,-5.072c3.262,0 3.268,5.072 0,5.072" fill="#efab00"/><path d="M241.2174,222.9748c-3.262,0 -3.268,-5.07 0,-5.07c3.262,0 3.268,5.07 0,5.07" fill="#efab00"/><path d="M213.152,224.9748c-3.262,0 -3.268,-5.07 0,-5.07c3.262,0 3.268,5.07 0,5.07" fill="#efab00"/><path d="M299.489,235.9612c-3.262,0 -3.268,-5.07 0,-5.07c3.262,0 3.268,5.07 0,5.07" fill="#efab00"/><path d="M279.7078,196.6974c-3.264,0 -3.27,-5.07 0,-5.07c3.262,0 3.268,5.07 0,5.07" fill="#efab00"/><path d="M192.404,215.2424l1.8,0.54c-0.6,0.178 -1.26,0.14 -1.98,-0.04c0.06,-0.16 0.12,-0.32 0.18,-0.5" fill="#4ba04b"/></g><path d="M207.5954,169.4778c0,0 6.998,0.62 9.624,8.792c0.324,1.008 -0.95,1.79 -1.714,1.058c-3.016,-2.882 -8.688,-6.772 -16.832,-6.022" fill="#b02929"/><g><path d="M267.5632,208.1622c-0.378,-4.84 -3.138,-10.14 -11.398,-10.14c-0.282,0 -0.56,0 -0.82,0.038c10.82,0.4 11.558,10.32 10.218,15.202c-2.02,7.378 0.56,10.6 0.56,13.94c0,6.938 -3.68,8.72 -3.3,13.358c0.342,4.222 1.62,7.462 1.82,10.722h-16.1c-1.26,-3.162 -3.938,-7.52 -3.878,-10.902c0.118,-6.278 2.378,-6.378 2.578,-12.74c0.2,-6.378 -4,-9.6 -4,-15.138c0,-1.24 0.08,-2.66 0.32,-4.122c-6.5,0.92 -9.34,-1.598 -4.94,-2.92c5.4,-1.638 7.36,-9.178 14.62,-9.218c1.38,0 2.38,0.398 2.98,1.08c0.6,-0.682 1.6,-1.08 2.98,-1.08c7.26,0.04 9.222,7.58 14.62,9.218c4.7,1.402 1.182,4.18 -6.26,2.702" fill="#efab00"/><path d="M256.1746,198.0294c11.496,0 12.286,10.256 10.926,15.244c-2.012,7.384 0.564,10.602 0.566,13.934c0.006,6.936 -3.678,8.73 -3.302,13.356c0.374,4.608 1.86,8.052 1.862,11.614c0,4.106 -3.002,6.248 -6.296,7.872c-4.45,2.188 -8.478,2.178 -14.916,0.614c-8.038,-1.95 -9.468,4.796 -21.732,0.738c-11.538,-3.818 7.924,-0.43 11.23,-3.306c3.306,-2.872 6.13,-3.376 13.434,-2.668c7.302,0.712 -1.832,-8.786 -1.73,-15.032c0.102,-6.282 2.36,-6.376 2.566,-12.748c0.204,-6.376 -4.004,-9.586 -4.004,-15.13c0,-5.46 1.438,-14.488 11.396,-14.488" fill="#9b9b9b"/><path d="M267.5632,208.1622c-1.12,-0.22 -2.34,-0.542 -3.62,-0.98c-4.04,-1.36 -6.56,-3.462 -7.72,-5.462c-1.16,2 -3.68,4.102 -7.718,5.462c-1.182,0.4 -2.32,0.698 -3.362,0.938c0.122,-0.74 0.282,-1.5 0.522,-2.218c1.218,-4.14 4.1,-7.88 10.5,-7.88c7.038,0 10.078,3.84 11.058,7.98c0.16,0.718 0.282,1.44 0.34,2.16" fill="#7b7b7b"/><path d="M263.944,205.1018c-4.042,-1.36 -6.56,-3.46 -7.72,-5.48c-1.16,2.02 -3.68,4.12 -7.72,5.48c-9.8,3.3 -15.28,-0.1 -9.88,-1.74c5.4,-1.62 7.36,-9.16 14.618,-9.2c1.382,0 2.402,0.398 2.982,1.08c0.58,-0.682 1.598,-1.08 2.98,-1.08c7.26,0.04 9.22,7.58 14.618,9.2c5.402,1.64 -0.08,5.04 -9.878,1.74" fill="#9b9b9b"/><path d="M266.2234,252.172c0,4.122 -3,6.26 -6.298,7.88c-4.442,2.18 -8.482,2.18 -14.902,0.62c-8.04,-1.958 -9.48,4.782 -21.74,0.72c-5.74,-1.9 -3.8,-2 0,-2c12.26,4.062 13.7,-2.678 21.74,-0.74c6.42,1.562 10.46,1.58 14.902,-0.618c3.08,-1.5 5.878,-3.462 6.24,-7.042c0.038,0.4 0.058,0.78 0.058,1.18" fill="#7b7b7b"/></g></g></g></svg>