<svg version="1.2" baseProfile="tiny-ps" xmlns="http://www.w3.org/2000/svg" viewBox="0 0 1117 248" width="1117" height="248">
	<title>New Project</title>
	<style>
		tspan { white-space:pre }
		.shp0 { fill: #ffffff } 
	</style>
	<path fill="#ffffff" stroke="#ffffff" stroke-width="34" aria-label="CLUTTER"  d="M134.48 122.97Q134.76 135.07 133.22 150.49Q130.74 176.49 119.53 188.26Q114.07 194 95 200.61Q87.13 203.31 76.24 203.29Q61.72 203.26 48.73 198.09Q33.01 191.71 29.41 179.91Q28.2 178.39 26.69 175.67Q25.2 166.59 21.91 148.44L21.98 118.5Q21.98 114.27 23.83 101.27Q25.67 87.97 26.89 84.95Q37.53 56.85 50.24 54.15Q55.99 52.95 62.95 52.97Q85.03 53.02 103.45 63.94Q104.36 64.55 106.48 64.55Q106.78 63.65 107.1 56.99Q107.4 56.09 106.82 46.41Q106.24 33.1 115.62 33.12Q124.99 33.14 125.89 38.59Q125.88 41.61 125.24 60.96L124.59 81.83Q124.88 87.27 125.18 86.36Q123.96 90.9 120.94 91.8Q112.77 94.5 109.75 92.08Q108.23 92.07 106.42 91.16Q104.92 86.93 99.79 79.96Q92.85 74.2 81.97 69.94Q71.09 65.69 62.62 65.67Q52.64 65.65 46.55 81.06Q38.04 103.12 38.88 135.78Q39.45 150.6 39.75 154.53Q42.42 177.82 57.53 185.71Q65.08 189.66 72.34 189.98Q108.33 191.56 114.45 158.31Q117.81 140.18 115.11 128.38Q114.82 126.86 114.82 125.35Q114.83 117.79 126.33 116.91Q128.45 116.91 131.47 119.04Q134.49 120.86 134.48 122.97ZM288.92 180.15Q291.32 190.74 274.38 191.61Q274.38 191.61 259.86 192.49Q247.46 193.67 205.71 196.91Q196.03 197.49 168.2 200.16Q160.63 201.05 156.7 201.65Q152.77 202.24 154.58 202.25Q146.11 202.23 141.29 196.77Q140.99 194.05 140.99 192.54Q141 190.73 141.3 190.42Q144.94 184.08 154.62 182.89Q155.53 182.89 170.96 181.72Q171.26 181.72 171.56 181.11Q172.2 168.72 168.6 152.68L168.64 135.75Q168.66 123.35 165.12 83.12Q164.82 78.59 163.36 56.81Q161.55 55.6 158.52 55.89Q154.28 56.49 153.68 56.18L144 54.95Q135.84 52.82 135.86 44.35Q135.88 35.28 153.72 35.32Q155.24 35.32 165.22 35.95Q170.96 36.26 173.69 35.97Q181.55 35.07 204.24 34.82Q214.52 34.84 214.5 43.61Q214.48 53.89 196.94 53.25Q185.45 52.92 181.51 53.52Q181.51 54.73 182.99 71.67Q184.17 84.98 184.14 96.77L184.11 111.59Q184.1 117.03 187.66 152.12Q188.84 163.31 190.02 177.83Q190.63 178.73 191.53 178.74Q203.02 180.27 211.49 179.68Q217.85 179.09 234.18 177.92L248.7 177.04Q259.29 176.46 267.76 174.06Q267.77 171.03 266.27 163.17L264.18 152.28Q264.49 149.25 264.5 143.51Q263.31 135.64 262.11 129.59Q262.41 129.59 263.32 128.69Q263.03 125.66 267.27 123.56Q270.6 121.75 273.92 121.76Q279.07 121.77 281.47 128.42Q283.27 133.87 282.66 139.62Q281.43 149.89 285.01 172.58Q286.82 175 288.92 180.15ZM461.3 51.99Q459.76 64.39 440.1 63.44Q438.56 77.04 439.13 91.26Q439.7 108.19 436.93 135.1Q436 143.87 433.23 166.85Q427.09 210.68 397.43 219.39Q380.18 224.49 367.78 224.47Q359.91 224.45 354.17 222.62Q340.26 218.36 328.79 207.15Q317.32 195.93 313.12 182.32Q310.41 173.54 309.54 155.09L305.19 70.72Q305.19 67.99 302.48 64.66Q290.98 63.73 289.17 63.42Q281.31 61.29 279.81 54.33Q281.95 46.78 290.12 43.77Q292.54 42.87 302.83 41.68Q307.06 40.48 312.81 39.89Q315.23 39.59 325.51 40.22Q327.03 40.22 336.71 39.63Q344.27 39.05 352.73 41.78Q356.97 43 356.96 47.84Q356.93 58.12 340.9 59.3Q335.46 58.99 327.29 60.78Q325.17 61.99 325.16 65.01Q325.46 68.04 325.45 69.55Q325.13 80.43 326.3 97.07Q327.18 109.77 327.18 112.8L327.14 131.54Q327.13 133.06 327.73 136.08Q328.33 138.8 328.33 140.32L328.28 162.69Q329.18 165.11 330.08 169.95Q330.96 183.87 343.94 196.29Q356.92 208.42 371.14 208.45Q377.49 208.46 392.32 204.26Q398.37 202.46 403.53 195.81Q408.68 188.87 409.91 182.22Q411.42 179.5 413.55 173.76Q417.22 154.72 420.61 127.81Q424.3 99.69 421.64 66.12Q417.41 65.81 409.85 67.61Q402.28 69.41 398.65 69.4Q390.79 69.38 387.17 62.72Q385.97 56.67 393.54 53.66Q396.87 52.76 405.04 51.27Q413.21 49.77 441.65 44.39Q461.32 40.5 461.3 51.99ZM616.47 48.99Q614.03 59.57 612.79 71.97Q612.48 75.29 613.38 80.44Q614.27 86.48 614.27 88.9Q614.25 96.77 603.97 96.74Q597.31 96.73 595.2 92.8Q594.92 86.14 595.55 74.65Q596.18 61.05 596.19 56.51Q595.89 56.51 595.28 55.9Q567.15 57.05 542.34 59.42Q541.73 63.35 542.32 69.1L543.51 79.99Q542.28 89.36 542.24 107.8Q543.13 115.67 543.01 175.24L542.96 197.32Q542.95 202.46 544.46 204.58L563.21 204.62Q574.71 203.13 574.68 214.32Q574.67 220.97 568.31 223.68Q564.38 225.18 554.4 224.25Q548.35 223.64 540.18 223.92Q528.99 225.41 512.96 226.28Q496.62 227.16 493 221.71Q490.59 218.07 493.02 214.15Q497.27 207.5 515.11 207.54Q524.49 207.56 524.5 202.42Q524.51 199.7 524.21 197.28Q524.22 189.72 524.54 183.97Q525.48 167.64 524.63 138.01Q523.52 95.06 525.7 60.9L524.8 59.99Q515.42 60.57 489.71 59.61Q488.5 59.61 471.26 60.78Q475.43 89.82 476.01 102.22Q476.01 102.22 475.39 110.39Q475.08 114.92 467.82 114.91Q462.07 114.89 458.19 93.11Q456.4 80.11 454.61 66.8Q454.62 64.68 452.51 59.53Q450.71 54.09 450.71 51.37Q450.73 43.81 462.23 42.01Q463.13 42.02 465.25 42.32Q467.37 42.63 468.27 42.63L499.73 42.7Q543.29 42.79 543.29 42.79Q571.11 41.64 597.13 38.06Q598.95 37.16 602.58 36.26Q608.94 35.67 613.47 39.31Q618 42.64 616.47 48.99ZM772.84 49.32Q770.4 59.9 769.17 72.3Q768.86 75.62 769.75 80.76Q770.65 86.81 770.64 89.23Q770.63 97.1 760.34 97.07Q753.69 97.06 751.58 93.12Q751.29 86.47 751.92 74.98Q752.55 61.37 752.56 56.84Q752.26 56.84 751.66 56.23Q723.53 57.38 698.72 59.75Q698.1 63.68 698.7 69.43L699.88 80.31Q698.66 89.69 698.62 108.13Q699.51 116 699.38 175.57L699.34 197.64Q699.32 202.79 700.83 204.91L719.59 204.94Q731.08 203.46 731.06 214.65Q731.04 221.3 724.69 224.01Q720.75 225.51 710.77 224.58Q704.72 223.96 696.56 224.25Q685.36 225.74 669.33 226.61Q653 227.49 649.38 222.03Q646.96 218.4 649.39 214.47Q653.64 207.83 671.49 207.87Q680.86 207.89 680.87 202.75Q680.88 200.03 680.58 197.61Q680.6 190.05 680.91 184.3Q681.85 167.97 681.01 138.34Q679.89 95.39 682.08 61.23L681.17 60.32Q671.8 60.9 646.09 59.94Q644.88 59.94 627.64 61.11Q631.81 90.15 632.39 102.55Q632.39 102.55 631.77 110.71Q631.45 115.25 624.19 115.23Q618.45 115.22 614.56 93.44Q612.77 80.43 610.99 67.12Q610.99 65.01 608.89 59.86Q607.08 54.42 607.09 51.69Q607.1 44.13 618.6 42.34Q619.51 42.35 621.62 42.65Q623.74 42.96 624.65 42.96L656.11 43.03Q699.66 43.12 699.66 43.12Q727.49 41.97 753.51 38.39Q755.33 37.49 758.96 36.59Q765.31 36 769.84 39.64Q774.37 42.97 772.84 49.32ZM919.22 59.91Q915.58 65.04 908.01 65.03Q904.08 65.02 901.06 63.5Q900.78 55.34 899.6 39.31Q872.06 44.39 817.6 53.35Q814.88 53.94 813.06 54.85Q814.51 82.67 814.46 109.28Q816.57 109.89 833.52 106.6Q845.62 104.21 857.73 100.91Q856.54 90.02 855.98 67.94Q856.3 62.2 863.86 62.21Q872.63 62.23 873.52 69.79L877.08 104.27L876.98 151.15Q877.89 152.36 878.19 152.96Q877.27 156.59 873.03 159.3Q868.79 161.71 864.56 161.7Q859.11 161.69 857.31 156.85Q858.23 151.71 858.24 147.48L857.99 119.66Q838.94 120.22 815.03 127.43Q815.01 135.9 814.66 155.25Q814.33 172.48 814.61 180.35Q814.61 181.86 817.02 185.8Q836.98 186.75 867.52 190.14Q886.88 192.29 898.37 191.71Q898.68 187.78 899.91 179.32L899.95 161.48Q898.14 158.45 898.14 155.73Q898.15 151.19 901.79 148.17Q905.73 144.86 910.27 144.87Q913.9 144.87 916.01 146.99Q917.22 148.21 916.6 154.86Q916.29 156.67 916.59 160Q917.18 165.14 917.18 165.14Q917.18 166.96 916.56 170.28Q916.25 173.61 916.25 175.42L916.21 193.56Q916.21 194.17 917.11 196.59Q917.71 199.31 917.11 200.22Q912.85 208.68 904.39 208.66Q902.87 208.66 899.85 208.05Q897.13 207.43 895.62 207.43L877.17 207.39Q867.49 207.37 847.83 205.21Q828.48 203.06 818.8 203.04L799.74 203Q796.11 202.99 789.16 203.88Q782.5 204.47 778.87 204.46Q770.4 204.45 765.57 201.72Q764.06 200.8 764.06 197.18Q764.08 187.5 776.79 187.53L786.16 187.55Q789.49 188.16 795.24 186.96Q797.06 186.06 797.37 182.73Q797.67 180.31 797.38 176.38Q797.09 172.15 797.09 170.94Q797.15 139.49 796.86 134.95Q791.42 134.33 781.75 130.99Q779.03 128.86 779.04 125.54Q779.05 116.77 796.91 112.27Q797.82 108.95 797.23 104.11Q796.93 101.99 796.34 95.94L794.31 56.02Q790.98 56.01 784.62 56.91Q778.57 57.8 775.25 57.79Q761.33 57.76 761.35 49.3Q761.35 48.09 761.66 46.58Q761.36 45.97 761.06 45.97Q768.02 40.24 776.19 39.95Q779.22 39.96 787.08 39.98Q823.98 39.45 909.62 22.69Q912.64 21.79 915.06 23.92Q917.47 27.25 918.37 31.48Q918.06 36.02 918.05 40.55Q918.03 49.93 919.22 59.91ZM1096.79 191.22Q1098.29 196.37 1092.53 205.73Q1086.76 214.79 1081.61 218.1Q1075.55 222.02 1063.15 223.21Q1052.56 224.09 1043.81 213.49Q1035.97 204.1 1034.78 192.91Q1031.82 162.36 1026.41 145.11Q1023.42 127.87 1010.73 122.7Q1006.8 121.18 995.92 116.92Q994.71 116.62 992.9 116.92Q988.66 118.12 975.35 121.72L975.28 151.05Q975.28 153.47 975.88 157.4Q976.47 162.24 976.47 164.06Q977.35 174.34 977.92 191.28Q980.04 192.19 982.46 191.28Q991.24 187.98 996.98 189.8Q1001.51 191.32 1001.5 197.07Q1001.48 205.24 987.56 208.83Q980.6 209.73 966.38 211.81Q950.05 214.5 945.81 214.49Q935.53 214.47 931.61 209.62Q930.72 199.64 941.91 197.55Q950.99 196.66 960.07 195.47Q961.28 193.96 961.28 192.15Q961 183.07 958.06 142.24Q957.18 130.45 957.49 126.52Q952.05 126.2 950.23 125.6Q945.7 124.07 944.5 119.84L944.5 118.93Q945.1 118.63 945.41 115.91Q949.66 109.27 956.31 110.79Q956.92 109.28 956.03 101.11Q953.36 75.1 952.8 55.14Q951.59 53.93 947.66 54.53Q945.54 54.82 941.31 55.72Q924.97 55.69 925.59 47.83Q926.21 40.57 951.33 36.39Q967.06 34.31 982.49 32.52Q984.91 32.23 1003.96 33.48L1017.27 34.41Q1048.42 36.59 1056.53 62.32Q1057.73 65.64 1057.11 74.11Q1056.79 81.97 1054.67 85.29Q1047.38 97.98 1026.49 107.91Q1026.49 108.82 1026.79 109.12Q1034.34 114.58 1037.05 118.82Q1044.89 131.24 1047.56 155.74Q1051.12 188.1 1053.83 197.18Q1054.13 199.3 1058.05 203.24Q1062.28 206.87 1064.39 207.18Q1073.77 207.81 1075.9 198.74Q1075.61 195.41 1078.65 189.67Q1082.89 185.75 1088.94 185.76Q1095.29 185.78 1096.79 191.22ZM1036.52 84.95Q1039.25 82.24 1039.26 76.49Q1039.3 55.93 1018.75 50.44Q1009.68 48 981.25 48.25Q978.52 48.24 973.07 50.65Q974.28 55.19 973.36 58.21Q972.14 62.14 972.44 66.67Q972.73 72.12 973.6 86.94L975.07 106.9Q980.22 106.61 990.2 103.91Q991.72 102.4 994.45 100.59Q996.56 99.99 1005.34 100.01Q1021.97 100.04 1036.52 84.95Z" />
	<path class="shp0" d="M145.58 196.14L176.59 196.2L177.44 218.35L145.07 219.57L145.58 196.14Z" />
	<path class="shp0" d="M117.88 52.08L142.71 51.87C142.71 51.87 142.53 63.6 142.64 75.35C142.07 87.02 139.85 98.52 139.85 98.52L117.78 98.08C117.78 98.08 117.81 86.58 117.83 75.08C117.85 63.58 117.88 52.08 117.88 52.08Z" />
	<path fill="#00ff0f" aria-label="CLUTTER"  d="M134.48 122.97Q134.76 135.07 133.22 150.49Q130.74 176.49 119.53 188.26Q114.07 194 95 200.61Q87.13 203.31 76.24 203.29Q61.72 203.26 48.73 198.09Q33.01 191.71 29.41 179.91Q28.2 178.39 26.69 175.67Q25.2 166.59 21.91 148.44L21.98 118.5Q21.98 114.27 23.83 101.27Q25.67 87.97 26.89 84.95Q37.53 56.85 50.24 54.15Q55.99 52.95 62.95 52.97Q85.03 53.02 103.45 63.94Q104.36 64.55 106.48 64.55Q106.78 63.65 107.1 56.99Q107.4 56.09 106.82 46.41Q106.24 33.1 115.62 33.12Q124.99 33.14 125.89 38.59Q125.88 41.61 125.24 60.96L124.59 81.83Q124.88 87.27 125.18 86.36Q123.96 90.9 120.94 91.8Q112.77 94.5 109.75 92.08Q108.23 92.07 106.42 91.16Q104.92 86.93 99.79 79.96Q92.85 74.2 81.97 69.94Q71.09 65.69 62.62 65.67Q52.64 65.65 46.55 81.06Q38.04 103.12 38.88 135.78Q39.45 150.6 39.75 154.53Q42.42 177.82 57.53 185.71Q65.08 189.66 72.34 189.98Q108.33 191.56 114.45 158.31Q117.81 140.18 115.11 128.38Q114.82 126.86 114.82 125.35Q114.83 117.79 126.33 116.91Q128.45 116.91 131.47 119.04Q134.49 120.86 134.48 122.97ZM288.92 180.15Q291.32 190.74 274.38 191.61Q274.38 191.61 259.86 192.49Q247.46 193.67 205.71 196.91Q196.03 197.49 168.2 200.16Q160.63 201.05 156.7 201.65Q152.77 202.24 154.58 202.25Q146.11 202.23 141.29 196.77Q140.99 194.05 140.99 192.54Q141 190.73 141.3 190.42Q144.94 184.08 154.62 182.89Q155.53 182.89 170.96 181.72Q171.26 181.72 171.56 181.11Q172.2 168.72 168.6 152.68L168.64 135.75Q168.66 123.35 165.12 83.12Q164.82 78.59 163.36 56.81Q161.55 55.6 158.52 55.89Q154.28 56.49 153.68 56.18L144 54.95Q135.84 52.82 135.86 44.35Q135.88 35.28 153.72 35.32Q155.24 35.32 165.22 35.95Q170.96 36.26 173.69 35.97Q181.55 35.07 204.24 34.82Q214.52 34.84 214.5 43.61Q214.48 53.89 196.94 53.25Q185.45 52.92 181.51 53.52Q181.51 54.73 182.99 71.67Q184.17 84.98 184.14 96.77L184.11 111.59Q184.1 117.03 187.66 152.12Q188.84 163.31 190.02 177.83Q190.63 178.73 191.53 178.74Q203.02 180.27 211.49 179.68Q217.85 179.09 234.18 177.92L248.7 177.04Q259.29 176.46 267.76 174.06Q267.77 171.03 266.27 163.17L264.18 152.28Q264.49 149.25 264.5 143.51Q263.31 135.64 262.11 129.59Q262.41 129.59 263.32 128.69Q263.03 125.66 267.27 123.56Q270.6 121.75 273.92 121.76Q279.07 121.77 281.47 128.42Q283.27 133.87 282.66 139.62Q281.43 149.89 285.01 172.58Q286.82 175 288.92 180.15ZM461.3 51.99Q459.76 64.39 440.1 63.44Q438.56 77.04 439.13 91.26Q439.7 108.19 436.93 135.1Q436 143.87 433.23 166.85Q427.09 210.68 397.43 219.39Q380.18 224.49 367.78 224.47Q359.91 224.45 354.17 222.62Q340.26 218.36 328.79 207.15Q317.32 195.93 313.12 182.32Q310.41 173.54 309.54 155.09L305.19 70.72Q305.19 67.99 302.48 64.66Q290.98 63.73 289.17 63.42Q281.31 61.29 279.81 54.33Q281.95 46.78 290.12 43.77Q292.54 42.87 302.83 41.68Q307.06 40.48 312.81 39.89Q315.23 39.59 325.51 40.22Q327.03 40.22 336.71 39.63Q344.27 39.05 352.73 41.78Q356.97 43 356.96 47.84Q356.93 58.12 340.9 59.3Q335.46 58.99 327.29 60.78Q325.17 61.99 325.16 65.01Q325.46 68.04 325.45 69.55Q325.13 80.43 326.3 97.07Q327.18 109.77 327.18 112.8L327.14 131.54Q327.13 133.06 327.73 136.08Q328.33 138.8 328.33 140.32L328.28 162.69Q329.18 165.11 330.08 169.95Q330.96 183.87 343.94 196.29Q356.92 208.42 371.14 208.45Q377.49 208.46 392.32 204.26Q398.37 202.46 403.53 195.81Q408.68 188.87 409.91 182.22Q411.42 179.5 413.55 173.76Q417.22 154.72 420.61 127.81Q424.3 99.69 421.64 66.12Q417.41 65.81 409.85 67.61Q402.28 69.41 398.65 69.4Q390.79 69.38 387.17 62.72Q385.97 56.67 393.54 53.66Q396.87 52.76 405.04 51.27Q413.21 49.77 441.65 44.39Q461.32 40.5 461.3 51.99ZM616.47 48.99Q614.03 59.57 612.79 71.97Q612.48 75.29 613.38 80.44Q614.27 86.48 614.27 88.9Q614.25 96.77 603.97 96.74Q597.31 96.73 595.2 92.8Q594.92 86.14 595.55 74.65Q596.18 61.05 596.19 56.51Q595.89 56.51 595.28 55.9Q567.15 57.05 542.34 59.42Q541.73 63.35 542.32 69.1L543.51 79.99Q542.28 89.36 542.24 107.8Q543.13 115.67 543.01 175.24L542.96 197.32Q542.95 202.46 544.46 204.58L563.21 204.62Q574.71 203.13 574.68 214.32Q574.67 220.97 568.31 223.68Q564.38 225.18 554.4 224.25Q548.35 223.64 540.18 223.92Q528.99 225.41 512.96 226.28Q496.62 227.16 493 221.71Q490.59 218.07 493.02 214.15Q497.27 207.5 515.11 207.54Q524.49 207.56 524.5 202.42Q524.51 199.7 524.21 197.28Q524.22 189.72 524.54 183.97Q525.48 167.64 524.63 138.01Q523.52 95.06 525.7 60.9L524.8 59.99Q515.42 60.57 489.71 59.61Q488.5 59.61 471.26 60.78Q475.43 89.82 476.01 102.22Q476.01 102.22 475.39 110.39Q475.08 114.92 467.82 114.91Q462.07 114.89 458.19 93.11Q456.4 80.11 454.61 66.8Q454.62 64.68 452.51 59.53Q450.71 54.09 450.71 51.37Q450.73 43.81 462.23 42.01Q463.13 42.02 465.25 42.32Q467.37 42.63 468.27 42.63L499.73 42.7Q543.29 42.79 543.29 42.79Q571.11 41.64 597.13 38.06Q598.95 37.16 602.58 36.26Q608.94 35.67 613.47 39.31Q618 42.64 616.47 48.99ZM772.84 49.32Q770.4 59.9 769.17 72.3Q768.86 75.62 769.75 80.76Q770.65 86.81 770.64 89.23Q770.63 97.1 760.34 97.07Q753.69 97.06 751.58 93.12Q751.29 86.47 751.92 74.98Q752.55 61.37 752.56 56.84Q752.26 56.84 751.66 56.23Q723.53 57.38 698.72 59.75Q698.1 63.68 698.7 69.43L699.88 80.31Q698.66 89.69 698.62 108.13Q699.51 116 699.38 175.57L699.34 197.64Q699.32 202.79 700.83 204.91L719.59 204.94Q731.08 203.46 731.06 214.65Q731.04 221.3 724.69 224.01Q720.75 225.51 710.77 224.58Q704.72 223.96 696.56 224.25Q685.36 225.74 669.33 226.61Q653 227.49 649.38 222.03Q646.96 218.4 649.39 214.47Q653.64 207.83 671.49 207.87Q680.86 207.89 680.87 202.75Q680.88 200.03 680.58 197.61Q680.6 190.05 680.91 184.3Q681.85 167.97 681.01 138.34Q679.89 95.39 682.08 61.23L681.17 60.32Q671.8 60.9 646.09 59.94Q644.88 59.94 627.64 61.11Q631.81 90.15 632.39 102.55Q632.39 102.55 631.77 110.71Q631.45 115.25 624.19 115.23Q618.45 115.22 614.56 93.44Q612.77 80.43 610.99 67.12Q610.99 65.01 608.89 59.86Q607.08 54.42 607.09 51.69Q607.1 44.13 618.6 42.34Q619.51 42.35 621.62 42.65Q623.74 42.96 624.65 42.96L656.11 43.03Q699.66 43.12 699.66 43.12Q727.49 41.97 753.51 38.39Q755.33 37.49 758.96 36.59Q765.31 36 769.84 39.64Q774.37 42.97 772.84 49.32ZM919.22 59.91Q915.58 65.04 908.01 65.03Q904.08 65.02 901.06 63.5Q900.78 55.34 899.6 39.31Q872.06 44.39 817.6 53.35Q814.88 53.94 813.06 54.85Q814.51 82.67 814.46 109.28Q816.57 109.89 833.52 106.6Q845.62 104.21 857.73 100.91Q856.54 90.02 855.98 67.94Q856.3 62.2 863.86 62.21Q872.63 62.23 873.52 69.79L877.08 104.27L876.98 151.15Q877.89 152.36 878.19 152.96Q877.27 156.59 873.03 159.3Q868.79 161.71 864.56 161.7Q859.11 161.69 857.31 156.85Q858.23 151.71 858.24 147.48L857.99 119.66Q838.94 120.22 815.03 127.43Q815.01 135.9 814.66 155.25Q814.33 172.48 814.61 180.35Q814.61 181.86 817.02 185.8Q836.98 186.75 867.52 190.14Q886.88 192.29 898.37 191.71Q898.68 187.78 899.91 179.32L899.95 161.48Q898.14 158.45 898.14 155.73Q898.15 151.19 901.79 148.17Q905.73 144.86 910.27 144.87Q913.9 144.87 916.01 146.99Q917.22 148.21 916.6 154.86Q916.29 156.67 916.59 160Q917.18 165.14 917.18 165.14Q917.18 166.96 916.56 170.28Q916.25 173.61 916.25 175.42L916.21 193.56Q916.21 194.17 917.11 196.59Q917.71 199.31 917.11 200.22Q912.85 208.68 904.39 208.66Q902.87 208.66 899.85 208.05Q897.13 207.43 895.62 207.43L877.17 207.39Q867.49 207.37 847.83 205.21Q828.48 203.06 818.8 203.04L799.74 203Q796.11 202.99 789.16 203.88Q782.5 204.47 778.87 204.46Q770.4 204.45 765.57 201.72Q764.06 200.8 764.06 197.18Q764.08 187.5 776.79 187.53L786.16 187.55Q789.49 188.16 795.24 186.96Q797.06 186.06 797.37 182.73Q797.67 180.31 797.38 176.38Q797.09 172.15 797.09 170.94Q797.15 139.49 796.86 134.95Q791.42 134.33 781.75 130.99Q779.03 128.86 779.04 125.54Q779.05 116.77 796.91 112.27Q797.82 108.95 797.23 104.11Q796.93 101.99 796.34 95.94L794.31 56.02Q790.98 56.01 784.62 56.91Q778.57 57.8 775.25 57.79Q761.33 57.76 761.35 49.3Q761.35 48.09 761.66 46.58Q761.36 45.97 761.06 45.97Q768.02 40.24 776.19 39.95Q779.22 39.96 787.08 39.98Q823.98 39.45 909.62 22.69Q912.64 21.79 915.06 23.92Q917.47 27.25 918.37 31.48Q918.06 36.02 918.05 40.55Q918.03 49.93 919.22 59.91ZM1096.79 191.22Q1098.29 196.37 1092.53 205.73Q1086.76 214.79 1081.61 218.1Q1075.55 222.02 1063.15 223.21Q1052.56 224.09 1043.81 213.49Q1035.97 204.1 1034.78 192.91Q1031.82 162.36 1026.41 145.11Q1023.42 127.87 1010.73 122.7Q1006.8 121.18 995.92 116.92Q994.71 116.62 992.9 116.92Q988.66 118.12 975.35 121.72L975.28 151.05Q975.28 153.47 975.88 157.4Q976.47 162.24 976.47 164.06Q977.35 174.34 977.92 191.28Q980.04 192.19 982.46 191.28Q991.24 187.98 996.98 189.8Q1001.51 191.32 1001.5 197.07Q1001.48 205.24 987.56 208.83Q980.6 209.73 966.38 211.81Q950.05 214.5 945.81 214.49Q935.53 214.47 931.61 209.62Q930.72 199.64 941.91 197.55Q950.99 196.66 960.07 195.47Q961.28 193.96 961.28 192.15Q961 183.07 958.06 142.24Q957.18 130.45 957.49 126.52Q952.05 126.2 950.23 125.6Q945.7 124.07 944.5 119.84L944.5 118.93Q945.1 118.63 945.41 115.91Q949.66 109.27 956.31 110.79Q956.92 109.28 956.03 101.11Q953.36 75.1 952.8 55.14Q951.59 53.93 947.66 54.53Q945.54 54.82 941.31 55.72Q924.97 55.69 925.59 47.83Q926.21 40.57 951.33 36.39Q967.06 34.31 982.49 32.52Q984.91 32.23 1003.96 33.48L1017.27 34.41Q1048.42 36.59 1056.53 62.32Q1057.73 65.64 1057.11 74.11Q1056.79 81.97 1054.67 85.29Q1047.38 97.98 1026.49 107.91Q1026.49 108.82 1026.79 109.12Q1034.34 114.58 1037.05 118.82Q1044.89 131.24 1047.56 155.74Q1051.12 188.1 1053.83 197.18Q1054.13 199.3 1058.05 203.24Q1062.28 206.87 1064.39 207.18Q1073.77 207.81 1075.9 198.74Q1075.61 195.41 1078.65 189.67Q1082.89 185.75 1088.94 185.76Q1095.29 185.78 1096.79 191.22ZM1036.52 84.95Q1039.25 82.24 1039.26 76.49Q1039.3 55.93 1018.75 50.44Q1009.68 48 981.25 48.25Q978.52 48.24 973.07 50.65Q974.28 55.19 973.36 58.21Q972.14 62.14 972.44 66.67Q972.73 72.12 973.6 86.94L975.07 106.9Q980.22 106.61 990.2 103.91Q991.72 102.4 994.45 100.59Q996.56 99.99 1005.34 100.01Q1021.97 100.04 1036.52 84.95Z" />
</svg>