<svg version="1.2" baseProfile="tiny-ps" xmlns="http://www.w3.org/2000/svg" viewBox="0 0 720 720" width="720" height="720">
	<title>New Project</title>
	<style>
		tspan { white-space:pre }
		.s0 { fill: #0000ff;stroke: #000000;stroke-width: 5 } 
		.s1 { fill: #ffffff;stroke: #000000;stroke-width: 0 } 
	</style>
	<path id="Shape 1" class="s0" d="m360 720c-199.08 0-360-160.92-360-360c0-199.08 160.92-360 360-360c199.08 0 360 160.92 360 360c0 199.08-160.92 360-360 360z" />
	<path id="C" fill="#ffffff" stroke="#ffffff" stroke-width="60" aria-label="C"  d="m537.84 378.14q1.03 41.28-4.13 93.91q-8.26 88.75-46.44 129q-18.58 19.61-83.59 42.31q-26.83 9.29-63.98 9.29q-49.54 0-93.91-17.54q-53.66-21.67-66.05-61.92q-4.13-5.16-9.29-14.45q-5.16-30.96-16.51-92.88v-102.17q0-14.45 6.19-58.82q6.19-45.41 10.32-55.73q36.12-95.98 79.46-105.26q19.61-4.13 43.34-4.13q75.34 0 138.29 37.15q3.1 2.06 10.32 2.06q1.03-3.1 2.06-25.8q1.03-3.1-1.03-36.12q-2.06-45.41 29.93-45.41q31.99 0 35.09 18.58q0 10.32-2.06 76.37l-2.06 71.21q1.03 18.58 2.06 15.48q-4.13 15.48-14.45 18.58q-27.86 9.29-38.18 1.03q-5.16 0-11.35-3.1q-5.16-14.45-22.7-38.18q-23.74-19.61-60.89-34.06q-37.15-14.45-66.05-14.45q-34.06 0-54.7 52.63q-28.9 75.34-25.8 186.79q2.06 50.57 3.1 63.98q9.29 79.46 60.89 106.3q25.8 13.42 50.57 14.45q122.81 5.16 143.45-108.36q11.35-61.92 2.06-102.17q-1.03-5.16-1.03-10.32q0-25.8 39.22-28.9q7.22 0 17.54 7.22q10.32 6.19 10.32 13.42z" />
	<path id="Shape 2" class="s1" d="m486 302c-27.65 0-50-22.35-50-50c0-27.65 22.35-50 50-50c27.65 0 50 22.35 50 50c0 27.65-22.35 50-50 50z" />
	<path id="C" fill="#00ff00" aria-label="C"  d="m537.84 378.14q1.03 41.28-4.13 93.91q-8.26 88.75-46.44 129q-18.58 19.61-83.59 42.31q-26.83 9.29-63.98 9.29q-49.54 0-93.91-17.54q-53.66-21.67-66.05-61.92q-4.13-5.16-9.29-14.45q-5.16-30.96-16.51-92.88v-102.17q0-14.45 6.19-58.82q6.19-45.41 10.32-55.73q36.12-95.98 79.46-105.26q19.61-4.13 43.34-4.13q75.34 0 138.29 37.15q3.1 2.06 10.32 2.06q1.03-3.1 2.06-25.8q1.03-3.1-1.03-36.12q-2.06-45.41 29.93-45.41q31.99 0 35.09 18.58q0 10.32-2.06 76.37l-2.06 71.21q1.03 18.58 2.06 15.48q-4.13 15.48-14.45 18.58q-27.86 9.29-38.18 1.03q-5.16 0-11.35-3.1q-5.16-14.45-22.7-38.18q-23.74-19.61-60.89-34.06q-37.15-14.45-66.05-14.45q-34.06 0-54.7 52.63q-28.9 75.34-25.8 186.79q2.06 50.57 3.1 63.98q9.29 79.46 60.89 106.3q25.8 13.42 50.57 14.45q122.81 5.16 143.45-108.36q11.35-61.92 2.06-102.17q-1.03-5.16-1.03-10.32q0-25.8 39.22-28.9q7.22 0 17.54 7.22q10.32 6.19 10.32 13.42z" />
</svg>